<?xml version="1.0" encoding="UTF-8" standalone="no"?>
<!-- Created with Inkscape (http://www.inkscape.org/) -->

<svg
   xmlns:dc="http://purl.org/dc/elements/1.1/"
   xmlns:cc="http://creativecommons.org/ns#"
   xmlns:rdf="http://www.w3.org/1999/02/22-rdf-syntax-ns#"
   xmlns:svg="http://www.w3.org/2000/svg"
   xmlns="http://www.w3.org/2000/svg"
   xmlns:sodipodi="http://sodipodi.sourceforge.net/DTD/sodipodi-0.dtd"
   xmlns:inkscape="http://www.inkscape.org/namespaces/inkscape"
   width="23.787695mm"
   height="15.464347mm"
   viewBox="0 0 84.287109 54.794929"
   id="svg2"
   version="1.1"
   inkscape:version="0.91 r13725"
   sodipodi:docname="bless.svg">
  <defs
     id="defs4" />
  <sodipodi:namedview
     id="base"
     pagecolor="#ffffff"
     bordercolor="#666666"
     borderopacity="1.0"
     inkscape:pageopacity="0.0"
     inkscape:pageshadow="2"
     inkscape:zoom="0.49497475"
     inkscape:cx="598.529"
     inkscape:cy="559.30551"
     inkscape:document-units="px"
     inkscape:current-layer="layer2"
     showgrid="false"
     inkscape:window-width="1920"
     inkscape:window-height="1027"
     inkscape:window-x="-8"
     inkscape:window-y="246"
     inkscape:window-maximized="1"
     fit-margin-top="0"
     fit-margin-left="0"
     fit-margin-right="0"
     fit-margin-bottom="0" />
  <metadata
     id="metadata7">
    <rdf:RDF>
      <cc:Work
         rdf:about="">
        <dc:format>image/svg+xml</dc:format>
        <dc:type
           rdf:resource="http://purl.org/dc/dcmitype/StillImage" />
        <dc:title></dc:title>
      </cc:Work>
    </rdf:RDF>
  </metadata>
  <g
     inkscape:groupmode="layer"
     id="layer2"
     inkscape:label="Layer 2"
     style="display:inline;opacity:1"
     transform="translate(-614.3591,-695.55133)">
    <path
       style="opacity:1;fill:#ffffaa;fill-opacity:1;stroke:none;stroke-width:0.64399999;stroke-linecap:round;stroke-linejoin:round;stroke-miterlimit:4;stroke-dasharray:none;stroke-opacity:1"
       d="m 687.20871,695.55133 -14.86523,10.74415 a 16.701391,33.427307 84.696663 0 0 -9.05078,-0.91993 16.701391,33.427307 84.696663 0 0 -6.63086,0.1875 16.701391,33.427307 84.696663 0 0 -26.95117,9.2461 l -15.35157,-1.875 13.08203,3.96094 a 16.701391,33.427307 84.696663 0 0 -3.48437,8 16.701391,33.427307 84.696663 0 0 12.26758,11.80664 l -12.75781,13.64453 17.28906,-12.39453 a 16.701391,33.427307 84.696663 0 0 17.125,1.03125 16.701391,33.427307 84.696663 0 0 27.85351,-9.98633 l 12.91211,1.52734 -11.17187,-3.30469 a 16.701391,33.427307 84.696663 0 0 3.11133,-7.56836 16.701391,33.427307 84.696663 0 0 -14.4375,-12.4707 l 11.06054,-11.62891 z m -25.80468,14.47657 a 11.660574,23.338268 84.696663 0 1 5.15234,0.45117 l -4.85352,3.50781 c -4.3863,3.54847 -9.15879,3.61233 -15.91406,2.78711 l -6.93555,-0.84766 a 11.660574,23.338268 84.696663 0 1 17.92188,-5.76562 11.660574,23.338268 84.696663 0 1 4.62891,-0.13281 z m 10.42968,1.6875 a 11.660574,23.338268 84.696663 0 1 8.625,8.28125 11.660574,23.338268 84.696663 0 1 -1.65234,4.6582 l -10.0332,-2.9668 c -3.03823,-0.89863 -3.22173,-3.36807 -1.05274,-5.64843 l 4.11328,-4.32422 z m -36.4414,7.58789 9.1914,2.7832 c 2.31666,0.7015 1.97886,3.56114 0.13282,5.53516 l -3.54102,3.78515 a 11.660574,23.338268 84.696663 0 1 -7.23633,-7.75 11.660574,23.338268 84.696663 0 1 1.45313,-4.35351 z m 25.31054,6.85351 c 0.60726,-0.008 1.25617,0.0252 1.95118,0.10743 l 12.82031,1.51757 a 11.660574,23.338268 84.696663 0 1 -17.84961,5.71094 11.660574,23.338268 84.696663 0 1 -10.12696,-0.375 l 4.22852,-3.03125 c 2.46761,-1.76907 4.72579,-3.87244 8.97656,-3.92969 z"
       id="path4881"
       inkscape:connector-curvature="0" />
  </g>
</svg>
