<?xml version="1.0" encoding="UTF-8" standalone="no"?>
<!-- Created with Inkscape (http://www.inkscape.org/) -->

<svg
   xmlns:dc="http://purl.org/dc/elements/1.1/"
   xmlns:cc="http://creativecommons.org/ns#"
   xmlns:rdf="http://www.w3.org/1999/02/22-rdf-syntax-ns#"
   xmlns:svg="http://www.w3.org/2000/svg"
   xmlns="http://www.w3.org/2000/svg"
   xmlns:sodipodi="http://sodipodi.sourceforge.net/DTD/sodipodi-0.dtd"
   xmlns:inkscape="http://www.inkscape.org/namespaces/inkscape"
   width="22.426586mm"
   height="15.169444mm"
   viewBox="0 0 79.464283 53.749998"
   id="svg2"
   version="1.1"
   inkscape:version="0.91 r13725"
   sodipodi:docname="ice.svg">
  <defs
     id="defs4" />
  <sodipodi:namedview
     id="base"
     pagecolor="#ffffff"
     bordercolor="#666666"
     borderopacity="1.0"
     inkscape:pageopacity="0.0"
     inkscape:pageshadow="2"
     inkscape:zoom="0.24748737"
     inkscape:cx="1918.4477"
     inkscape:cy="-269.04565"
     inkscape:document-units="px"
     inkscape:current-layer="layer2"
     showgrid="false"
     inkscape:window-width="1920"
     inkscape:window-height="1027"
     inkscape:window-x="-8"
     inkscape:window-y="246"
     inkscape:window-maximized="1"
     fit-margin-top="0"
     fit-margin-left="0"
     fit-margin-right="0"
     fit-margin-bottom="0" />
  <metadata
     id="metadata7">
    <rdf:RDF>
      <cc:Work
         rdf:about="">
        <dc:format>image/svg+xml</dc:format>
        <dc:type
           rdf:resource="http://purl.org/dc/dcmitype/StillImage" />
        <dc:title></dc:title>
      </cc:Work>
    </rdf:RDF>
  </metadata>
  <g
     inkscape:groupmode="layer"
     id="layer2"
     inkscape:label="Layer 2"
     style="display:inline;opacity:1"
     transform="translate(-127.30313,-910.58394)">
    <path
       style="opacity:1;fill:#00b4fe;fill-opacity:1;fill-rule:evenodd;stroke:none;stroke-width:1px;stroke-linecap:butt;stroke-linejoin:miter;stroke-opacity:1"
       d="m 149.98172,918.39643 13.75,-0.13392 -2.00893,6.42857 2.45536,0.35714 3.03571,-1.83035 0,-5 19.41964,-7.63393 0.35715,11.29464 -9.59822,3.30357 -0.0893,2.41072 3.57143,-0.22322 6.11607,-4.24107 19.77678,4.95536 -20.71428,11.60714 -7.32143,-3.57143 -4.46429,2.32143 0,3.03572 8.21429,0.71428 -6.25,22.14286 -18.39286,-11.25 3.21429,-6.25 -2.5,-0.89286 -3.92858,2.32143 0,5.53571 -19.64285,8.92858 3.21428,-15 7.67857,-2.5 0.53572,-2.5 -1.96429,-1.42858 -5.53571,4.28572 -11.60714,-5.35714 14.82142,-8.39286 5.71429,2.32143 3.21429,-1.96429 -0.22005,-2.7417 -5.49422,-0.11544 z"
       id="path4201"
       inkscape:connector-curvature="0"
       sodipodi:nodetypes="ccccccccccccccccccccccccccccccccccccc" />
  </g>
</svg>
