<?xml version="1.0" encoding="UTF-8" standalone="no"?>
<!-- Created with Inkscape (http://www.inkscape.org/) -->

<svg
   xmlns:dc="http://purl.org/dc/elements/1.1/"
   xmlns:cc="http://creativecommons.org/ns#"
   xmlns:rdf="http://www.w3.org/1999/02/22-rdf-syntax-ns#"
   xmlns:svg="http://www.w3.org/2000/svg"
   xmlns="http://www.w3.org/2000/svg"
   xmlns:sodipodi="http://sodipodi.sourceforge.net/DTD/sodipodi-0.dtd"
   xmlns:inkscape="http://www.inkscape.org/namespaces/inkscape"
   width="21.228155mm"
   height="12.902135mm"
   viewBox="0 0 75.217874 45.716226"
   id="svg2"
   version="1.1"
   inkscape:version="0.91 r13725"
   sodipodi:docname="psy.svg">
  <defs
     id="defs4" />
  <sodipodi:namedview
     id="base"
     pagecolor="#ffffff"
     bordercolor="#666666"
     borderopacity="1.0"
     inkscape:pageopacity="0.0"
     inkscape:pageshadow="2"
     inkscape:zoom="0.49497475"
     inkscape:cx="404.04602"
     inkscape:cy="-29.00239"
     inkscape:document-units="px"
     inkscape:current-layer="layer2"
     showgrid="false"
     inkscape:window-width="1920"
     inkscape:window-height="1027"
     inkscape:window-x="-8"
     inkscape:window-y="246"
     inkscape:window-maximized="1"
     fit-margin-top="0"
     fit-margin-left="0"
     fit-margin-right="0"
     fit-margin-bottom="0" />
  <metadata
     id="metadata7">
    <rdf:RDF>
      <cc:Work
         rdf:about="">
        <dc:format>image/svg+xml</dc:format>
        <dc:type
           rdf:resource="http://purl.org/dc/dcmitype/StillImage" />
        <dc:title></dc:title>
      </cc:Work>
    </rdf:RDF>
  </metadata>
  <g
     inkscape:groupmode="layer"
     id="layer2"
     inkscape:label="Layer 2"
     style="display:inline;opacity:1"
     transform="translate(-447.9869,-716.32784)">
    <g
       id="g4739"
       transform="translate(-14.285714,151.42857)">
      <path
         id="path4258-3"
         d="m 517.38951,564.9085 a 19.584088,39.41329 69.838922 0 0 -25.56055,4.95508 19.584088,39.41329 69.838922 0 0 -28.68359,32.11914 19.584088,39.41329 69.838922 0 0 44.78711,3.66797 19.584088,39.41329 69.838922 0 0 28.68554,-32.11914 19.584088,39.41329 69.838922 0 0 -19.22851,-8.62305 z m -2.85742,3.56445 a 15.984697,33.003289 69.394491 0 1 16.30273,6.62891 15.984697,33.003289 69.394491 0 1 -23.5039,26.70703 15.984697,33.003289 69.394491 0 1 -37.67579,-2.08203 15.984697,33.003289 69.394491 0 1 23.50391,-26.70703 15.984697,33.003289 69.394491 0 1 21.37305,-4.54688 z"
         style="display:inline;opacity:1;fill:#ed70ee;fill-opacity:1;stroke:none;stroke-width:0.64399999;stroke-linecap:round;stroke-linejoin:round;stroke-miterlimit:4;stroke-dasharray:none;stroke-opacity:1"
         inkscape:connector-curvature="0" />
      <path
         id="path4258-3-1"
         d="m 513.26256,571.27373 a 13.790224,29.124483 71.23227 0 0 -18.97852,3.53907 13.790224,29.124483 71.23227 0 0 -21.36133,22.59375 13.790224,29.124483 71.23227 0 0 33.22266,2.46093 13.790224,29.124483 71.23227 0 0 21.36328,-22.59375 13.790224,29.124483 71.23227 0 0 -14.24609,-6 z m -3.67578,3.8086 a 10.356069,22.427947 70.787626 0 1 11.11132,4.23828 10.356069,22.427947 70.787626 0 1 -16.10351,17.28125 10.356069,22.427947 70.787626 0 1 -25.70899,-1.25781 10.356069,22.427947 70.787626 0 1 16.10352,-17.28125 10.356069,22.427947 70.787626 0 1 14.59766,-2.98047 z"
         style="display:inline;opacity:1;fill:#ed70ee;fill-opacity:1;stroke:none;stroke-width:0.64399999;stroke-linecap:round;stroke-linejoin:round;stroke-miterlimit:4;stroke-dasharray:none;stroke-opacity:1"
         inkscape:connector-curvature="0" />
      <path
         id="path4258-3-1-1"
         d="m 508.06334,577.4378 a 8.633336,18.404823 71.552284 0 0 -12.00782,2.21289 8.633336,18.404823 71.552284 0 0 -13.51562,14.1289 8.633336,18.404823 71.552284 0 0 21.01953,1.53907 8.633336,18.404823 71.552284 0 0 13.51758,-14.12891 8.633336,18.404823 71.552284 0 0 -9.01367,-3.75195 z m -3.10352,3.31445 a 5.6992659,12.457507 71.106792 0 1 6.17969,2.33008 5.6992659,12.457507 71.106792 0 1 -8.95508,9.49804 5.6992659,12.457507 71.106792 0 1 -14.29883,-0.68945 5.6992659,12.457507 71.106792 0 1 8.95508,-9.5 5.6992659,12.457507 71.106792 0 1 8.11914,-1.63867 z"
         style="display:inline;opacity:1;fill:#ed70ee;fill-opacity:1;stroke:none;stroke-width:0.64399999;stroke-linecap:round;stroke-linejoin:round;stroke-miterlimit:4;stroke-dasharray:none;stroke-opacity:1"
         inkscape:connector-curvature="0" />
      <ellipse
         cx="170.63448"
         cy="731.54865"
         rx="8.1219749"
         ry="3.7578526"
         transform="matrix(0.93517009,-0.35419896,0.46439866,0.88562627,0,0)"
         id="path4258-1-8-28-2-7"
         style="display:inline;opacity:1;fill:#ed70ee;fill-opacity:1;stroke:none;stroke-width:0.64399999;stroke-linecap:round;stroke-linejoin:round;stroke-miterlimit:4;stroke-dasharray:none;stroke-opacity:1" />
    </g>
  </g>
</svg>
