<?xml version="1.0" encoding="UTF-8" standalone="no"?>
<!-- Created with Inkscape (http://www.inkscape.org/) -->

<svg
   xmlns:dc="http://purl.org/dc/elements/1.1/"
   xmlns:cc="http://creativecommons.org/ns#"
   xmlns:rdf="http://www.w3.org/1999/02/22-rdf-syntax-ns#"
   xmlns:svg="http://www.w3.org/2000/svg"
   xmlns="http://www.w3.org/2000/svg"
   xmlns:sodipodi="http://sodipodi.sourceforge.net/DTD/sodipodi-0.dtd"
   xmlns:inkscape="http://www.inkscape.org/namespaces/inkscape"
   width="23.207178mm"
   height="9.6219702mm"
   viewBox="0 0 82.23016 34.093595"
   id="svg2"
   version="1.1"
   inkscape:version="0.91 r13725"
   sodipodi:docname="wind.svg">
  <defs
     id="defs4" />
  <sodipodi:namedview
     id="base"
     pagecolor="#ffffff"
     bordercolor="#666666"
     borderopacity="1.0"
     inkscape:pageopacity="0.0"
     inkscape:pageshadow="2"
     inkscape:zoom="0.24748737"
     inkscape:cx="779.1692"
     inkscape:cy="-431.99187"
     inkscape:document-units="px"
     inkscape:current-layer="layer2"
     showgrid="false"
     inkscape:window-width="1920"
     inkscape:window-height="1027"
     inkscape:window-x="-8"
     inkscape:window-y="246"
     inkscape:window-maximized="1"
     fit-margin-top="0"
     fit-margin-left="0"
     fit-margin-right="0"
     fit-margin-bottom="0" />
  <metadata
     id="metadata7">
    <rdf:RDF>
      <cc:Work
         rdf:about="">
        <dc:format>image/svg+xml</dc:format>
        <dc:type
           rdf:resource="http://purl.org/dc/dcmitype/StillImage" />
        <dc:title></dc:title>
      </cc:Work>
    </rdf:RDF>
  </metadata>
  <g
     inkscape:groupmode="layer"
     id="layer2"
     inkscape:label="Layer 2"
     style="display:inline;opacity:1"
     transform="translate(-266.43,-625.07367)">
    <path
       style="fill:#2af536;fill-opacity:1;fill-rule:evenodd;stroke:none;stroke-width:1px;stroke-linecap:butt;stroke-linejoin:miter;stroke-opacity:1"
       d="m 306.81445,625.07367 c -0.48777,0.0948 -3.64648,0.47162 -7.48437,1.79101 -12.77263,4.39097 -35.86586,19.84237 -32.58442,27.54821 6.02772,7.30502 24.7577,5.18382 38.69213,0.3839 6.46525,-2.22706 12.96957,-5.34327 15.62238,-8.04968 -2.72136,0.17343 -3.59969,0.3276 -5.28283,0.3461 14.02989,-2.27685 22.13793,-10.10633 32.88282,-17.58789 -7.07541,2.41263 -15.48934,3.87268 -22.85743,5 -16.25629,2.48722 -45.25609,8.43451 -18.98828,-9.43165 z m -20.77539,14.58007 c -1.67739,2.50662 -2.4426,4.18051 0.88477,5.06027 4.64524,1.2282 16.00896,-0.44731 21.31055,-0.57003 -6.96495,2.43189 -23.34502,7.31057 -26.79688,3.47656 -1.56467,-1.73789 -1.43076,-3.89811 4.60156,-7.9668 z"
       id="path4706"
       inkscape:connector-curvature="0"
       sodipodi:nodetypes="cscscccsccscsc" />
  </g>
</svg>
